<?xml version="1.0" encoding="UTF-8"?>
<svg width="105px" viewBox="0 0 195 23" version="1.1" xmlns="http://www.w3.org/2000/svg" xmlns:xlink="http://www.w3.org/1999/xlink">
    <title>IgorStar</title>
    <defs>
        <path d="M4.28959961,22 L4.28959961,0.4140625 L0.482080078,0.4140625 L0.482080078,22 L4.28959961,22 Z M23.9867676,22.3747559 C24.9461426,22.3747559 25.8930257,22.2873128 26.827417,22.1124268 C27.7618083,21.9375407 28.531307,21.7401693 29.1359131,21.5203125 C29.7405192,21.3004557 30.3201416,21.0506185 30.8747803,20.7708008 C31.4294189,20.4909831 31.7891846,20.29611 31.9540771,20.1861816 C32.1189697,20.0762533 32.2463867,19.9863118 32.3363281,19.9163574 L32.3363281,19.9163574 L32.3363281,10.6673828 L22.6376465,10.6673828 L22.6376465,14.0851562 L28.6487305,14.0851562 L28.6487305,17.9226563 C27.1197266,18.4922852 25.4807943,18.7770996 23.7319336,18.7770996 C21.4933919,18.7770996 19.6346029,18.0650635 18.1555664,16.6409912 C16.6765299,15.2169189 15.9370117,13.4205892 15.9370117,11.252002 C15.9370117,9.0034668 16.6740316,7.17215983 18.1480713,5.75808105 C19.622111,4.34400228 21.6083171,3.63696289 24.1066895,3.63696289 C24.6363444,3.63696289 25.1984782,3.68942871 25.7930908,3.79436035 C26.3877035,3.89929199 26.8973714,4.01421712 27.3220947,4.13913574 C27.746818,4.26405436 28.1715413,4.40646159 28.5962646,4.56635742 C29.020988,4.72625326 29.3008057,4.83868001 29.4357178,4.9036377 C29.5706299,4.96859538 29.6780599,5.0210612 29.7580078,5.06103516 L29.7580078,5.06103516 L31.0771484,1.79316406 L30.7623535,1.61328125 C30.5524902,1.49335938 30.2227051,1.34845378 29.772998,1.17856445 C29.323291,1.00867513 28.8111247,0.838785807 28.236499,0.668896484 C27.6618734,0.499007161 26.9473389,0.354101563 26.0928955,0.234179688 C25.2384521,0.114257813 24.3615234,0.054296875 23.4621094,0.054296875 C21.8931315,0.054296875 20.3916097,0.344108073 18.9575439,0.923730469 C17.5234782,1.50335286 16.2867839,2.2878418 15.2474609,3.27719727 C14.208138,4.26655273 13.3786784,5.45078125 12.759082,6.82988281 C12.1394857,8.20898438 11.8296875,9.66303711 11.8296875,11.192041 C11.8296875,12.7710124 12.1244954,14.2500488 12.7141113,15.6291504 C13.3037272,17.008252 14.120695,18.1924805 15.1650146,19.1818359 C16.2093343,20.1711914 17.4934977,20.9506836 19.0175049,21.5203125 C20.541512,22.0899414 22.1979329,22.3747559 23.9867676,22.3747559 Z M50.234668,22.3447754 C51.8536133,22.3447754 53.3801188,22.0599609 54.8141846,21.490332 C56.2482503,20.9207031 57.4724528,20.1437093 58.486792,19.1593506 C59.5011312,18.1749919 60.3031087,16.9932617 60.8927246,15.6141602 C61.4823405,14.2350586 61.7771484,12.7610189 61.7771484,11.192041 C61.7771484,9.07342122 61.2824707,7.16466471 60.2931152,5.46577148 C59.3037598,3.76687826 57.9296549,2.44024251 56.1708008,1.48586426 C54.4119466,0.531486003 52.4332357,0.054296875 50.234668,0.054296875 C48.6457031,0.054296875 47.1391846,0.344108073 45.7151123,0.923730469 C44.29104,1.50335286 43.0668376,2.2878418 42.0425049,3.27719727 C41.0181722,4.26655273 40.2086995,5.45078125 39.6140869,6.82988281 C39.0194743,8.20898438 38.722168,9.66303711 38.722168,11.192041 C38.722168,12.7610189 39.0144775,14.237557 39.5990967,15.6216553 C40.1837158,17.0057536 40.983195,18.1899821 41.9975342,19.1743408 C43.0118734,20.1586995 44.2310791,20.933195 45.6551514,21.4978271 C47.0792236,22.0624593 48.6057292,22.3447754 50.234668,22.3447754 Z M50.2646484,18.9869629 C48.8955404,18.9869629 47.6413574,18.6446859 46.5020996,17.9601318 C45.3628418,17.2755778 44.4659261,16.3411865 43.8113525,15.156958 C43.156779,13.9727295 42.8294922,12.6710775 42.8294922,11.252002 C42.8294922,9.03344727 43.5365316,7.18465169 44.9506104,5.70561523 C46.3646891,4.22657878 48.1360352,3.48706055 50.2646484,3.48706055 C51.683724,3.48706055 52.9603923,3.82434082 54.0946533,4.49890137 C55.2289144,5.17346191 56.1108398,6.10285645 56.7404297,7.28708496 C57.3700195,8.47131348 57.6848145,9.79295247 57.6848145,11.252002 C57.6848145,13.4405762 56.9727783,15.2768799 55.5487061,16.7609131 C54.1246338,18.2449463 52.3632812,18.9869629 50.2646484,18.9869629 Z M73.1247559,22 L73.1247559,15.734082 L75.4932129,15.734082 C76.1627767,15.734082 76.8073568,15.7041016 77.4269531,15.6441406 L77.4269531,15.6441406 L81.9989746,22 L86.4510742,22 L80.9196777,14.6997559 C82.2388184,14.0801595 83.2231771,13.2057292 83.8727539,12.0764648 C84.5223307,10.9472005 84.8471191,9.61806641 84.8471191,8.0890625 C84.8471191,5.76057943 84.1076009,3.89929199 82.6285645,2.5052002 C81.149528,1.1111084 79.015918,0.4140625 76.2277344,0.4140625 L76.2277344,0.4140625 L69.3172363,0.4140625 L69.3172363,22 L73.1247559,22 Z M75.9429199,12.3612793 L73.1247559,12.3612793 L73.1247559,3.92177734 L75.9429199,3.92177734 C79.1408366,3.92177734 80.7397949,5.3108724 80.7397949,8.0890625 C80.7397949,9.37822266 80.3600423,10.4125488 79.6005371,11.192041 C78.8410319,11.9715332 77.6218262,12.3612793 75.9429199,12.3612793 L75.9429199,12.3612793 Z M98.6980957,22.3747559 C101.106527,22.3747559 102.997795,21.8201172 104.371899,20.7108398 C105.746004,19.6015625 106.433057,18.0875488 106.433057,16.1687988 C106.433057,15.4392741 106.33562,14.7847005 106.140747,14.2050781 C105.945874,13.6254557 105.61359,13.0658203 105.143896,12.5261719 C104.674202,11.9865234 104.037118,11.4768555 103.232642,10.997168 C102.428166,10.5174805 101.426318,10.0427897 100.2271,9.5730957 C98.6881022,9.01346029 97.6013102,8.48380534 96.9667236,7.98413086 C96.332137,7.48445638 96.0148438,6.89484049 96.0148438,6.2152832 C96.0148438,5.41580404 96.2971598,4.75623372 96.861792,4.23657227 C97.4264242,3.71691081 98.2533854,3.45708008 99.3426758,3.45708008 C100.831706,3.45708008 102.435661,3.93676758 104.154541,4.89614258 L104.154541,4.89614258 L105.38374,1.52333984 C104.654215,1.10361328 103.754801,0.753841146 102.685498,0.474023437 C101.616195,0.194205729 100.531901,0.054296875 99.4326172,0.054296875 C98.3133464,0.054296875 97.291512,0.22668457 96.3671143,0.571459961 C95.4427165,0.916235352 94.6782145,1.37843424 94.0736084,1.95805664 C93.4690023,2.53767904 93.0018066,3.20224609 92.6720215,3.95175781 C92.3422363,4.70126953 92.1773438,5.48575846 92.1773438,6.30522461 C92.1773438,7.6543457 92.6120605,8.82608236 93.4814941,9.82043457 C94.3509277,10.8147868 95.7999837,11.681722 97.8286621,12.4212402 C99.1178223,12.9009277 100.104679,13.3381429 100.789233,13.7328857 C101.473787,14.1276286 101.935986,14.5048828 102.17583,14.8646484 C102.415674,15.2244141 102.535596,15.6591309 102.535596,16.1687988 C102.535596,16.9083171 102.218302,17.5329102 101.583716,18.0425781 C100.949129,18.5522461 100.02723,18.8070801 98.8180176,18.8070801 C97.8586426,18.8070801 96.8667887,18.6371908 95.8424561,18.2974121 C94.8181234,17.9576335 93.85625,17.4829427 92.9568359,16.8733398 L92.9568359,16.8733398 L91.6376953,20.3061035 C92.6670247,20.9356934 93.7937907,21.4378662 95.0179932,21.8126221 C96.2421956,22.1873779 97.4688965,22.3747559 98.6980957,22.3747559 Z M122.082861,22 L122.082861,3.92177734 L129.173242,3.92177734 L129.173242,0.4140625 L111.035059,0.4140625 L111.035059,3.92177734 L118.245361,3.92177734 L118.245361,22 L122.082861,22 Z M134.959473,22 L136.833252,17.6978027 L146.097217,17.6978027 L148.000977,22 L152.093311,22 L141.959912,0.234179688 L141.105469,0.234179688 L130.97207,22 L134.959473,22 Z M144.748096,14.6697754 L138.182373,14.6697754 L141.465234,7.23461914 L144.748096,14.6697754 Z M162.181738,22 L162.181738,15.734082 L164.550195,15.734082 C165.219759,15.734082 165.864339,15.7041016 166.483936,15.6441406 L166.483936,15.6441406 L171.055957,22 L175.508057,22 L169.97666,14.6997559 C171.295801,14.0801595 172.28016,13.2057292 172.929736,12.0764648 C173.579313,10.9472005 173.904102,9.61806641 173.904102,8.0890625 C173.904102,5.76057943 173.164583,3.89929199 171.685547,2.5052002 C170.20651,1.1111084 168.0729,0.4140625 165.284717,0.4140625 L165.284717,0.4140625 L158.374219,0.4140625 L158.374219,22 L162.181738,22 Z M164.999902,12.3612793 L162.181738,12.3612793 L162.181738,3.92177734 L164.999902,3.92177734 C168.197819,3.92177734 169.796777,5.3108724 169.796777,8.0890625 C169.796777,9.37822266 169.417025,10.4125488 168.65752,11.192041 C167.898014,11.9715332 166.678809,12.3612793 164.999902,12.3612793 L164.999902,12.3612793 Z" id="path-1"></path>
        <polygon id="path-2" points="187 19.1629464 182.297718 22.472136 183.991859 16.9774042 179.391548 13.527864 185.140867 13.4411226 187 8 188.859133 13.4411226 194.608452 13.527864 190.008141 16.9774042 191.702282 22.472136"></polygon>
    </defs>
    <g id="Logo" stroke="none" stroke-width="1" fill="none" fill-rule="evenodd">
        <g id="Igor" fill-rule="nonzero" fill="#757575">
            <use xlink:href="#path-1"></use>
            <use xlink:href="#path-1"></use>
        </g>
        <mask id="mask-3" fill="white">
            <use xlink:href="#path-2"></use>
        </mask>
        <use id="Star" fill="#757575" xlink:href="#path-2"></use>
    </g>
</svg>
